<svg version="1.1" xmlns="http://www.w3.org/2000/svg" xmlns:xlink="http://www.w3.org/1999/xlink" width="64" height="64" viewBox="0,0,64,64"><defs><radialGradient cx="320" cy="240" r="10.93055" gradientUnits="userSpaceOnUse" id="color-1"><stop offset="0" stop-color="#ff0000" stop-opacity="0.16078"/><stop offset="1" stop-color="#ff0000" stop-opacity="0"/></radialGradient></defs><g transform="translate(-288,-208)"><g data-paper-data="{&quot;isPaintingLayer&quot;:true}" fill-rule="nonzero" stroke="#000000" stroke-width="0" stroke-linecap="butt" stroke-linejoin="miter" stroke-miterlimit="10" stroke-dasharray="" stroke-dashoffset="0" style="mix-blend-mode: normal"><path d="M309.06945,240c0,-6.03678 4.89377,-10.93055 10.93055,-10.93055c6.03678,0 10.93055,4.89377 10.93055,10.93055c0,6.03678 -4.89377,10.93055 -10.93055,10.93055c-6.03678,0 -10.93055,-4.89377 -10.93055,-10.93055z" fill="url(#color-1)"/><path d="M288,272v-64h64v64z" fill="none"/><path d="M312.03846,240c0,0 5.28828,-0.10366 6.61135,-1.42674c1.33073,-1.33073 1.35018,-6.5348 1.35018,-6.5348c0,0 0.08323,5.23723 1.41143,6.56542c1.32564,1.32564 6.55011,1.39612 6.55011,1.39612c0,0 -5.25538,0.07077 -6.59604,1.41143c-1.31259,1.31259 -1.3655,6.55011 -1.3655,6.55011c0,0 -0.05516,-5.23978 -1.38081,-6.56542c-1.3282,-1.3282 -6.58073,-1.39612 -6.58073,-1.39612z" fill="#ff8080"/></g></g></svg>