<svg version="1.1" xmlns="http://www.w3.org/2000/svg" xmlns:xlink="http://www.w3.org/1999/xlink" width="94.41995" height="44" viewBox="0,0,94.41995,44"><defs><linearGradient x1="320.2" y1="160" x2="320.2" y2="196" gradientUnits="userSpaceOnUse" id="color-1"><stop offset="0" stop-color="#808080"/><stop offset="1" stop-color="#999999"/></linearGradient><linearGradient x1="320.2" y1="160" x2="320.2" y2="196" gradientUnits="userSpaceOnUse" id="color-2"><stop offset="0" stop-color="#ffffff"/><stop offset="1" stop-color="#e6e6e6"/></linearGradient><linearGradient x1="320.1" y1="164" x2="320.1" y2="194" gradientUnits="userSpaceOnUse" id="color-3"><stop offset="0" stop-color="#b3b3b3"/><stop offset="1" stop-color="#b3b3b3" stop-opacity="0"/></linearGradient><linearGradient x1="319.45" y1="177" x2="319.45" y2="194" gradientUnits="userSpaceOnUse" id="color-4"><stop offset="0" stop-color="#ffffff" stop-opacity="0"/><stop offset="1" stop-color="#ffffff"/></linearGradient></defs><g transform="translate(-272.79002,-158)"><g data-paper-data="{&quot;isPaintingLayer&quot;:true}" fill-rule="nonzero" stroke-linecap="butt" stroke-linejoin="miter" stroke-miterlimit="10" stroke-dasharray="" stroke-dashoffset="0" style="mix-blend-mode: normal"><g stroke="#ffffff" stroke-width="4"><path d="M275,200l3.6,-36h86l-3.6,36z" fill="#999999"/><path d="M275.4,196l3.6,-36h86l-3.6,36z" fill="url(#color-1)"/></g><path d="M275,200l3.6,-36h86l-3.6,36z" fill="#e6e6e6" stroke="none" stroke-width="0"/><path d="M277.2,198l3.6,-36h82l-3.6,36z" fill="#666666" stroke="none" stroke-width="0"/><path d="M275.4,196l3.6,-36h86l-3.6,36z" fill="url(#color-2)" stroke="none" stroke-width="0"/><path d="M279.6,194l3,-30h78l-3,30z" fill="url(#color-3)" stroke="none" stroke-width="0"/><path d="M279.6,194l1.7,-17h78l-1.7,17z" fill="url(#color-4)" stroke="none" stroke-width="0"/></g></g></svg>