<svg version="1.1" xmlns="http://www.w3.org/2000/svg" xmlns:xlink="http://www.w3.org/1999/xlink" width="50" height="50" viewBox="0,0,50,50"><g transform="translate(-295,-155)"><g data-paper-data="{&quot;isPaintingLayer&quot;:true}" fill-rule="nonzero" stroke-linecap="butt" stroke-linejoin="miter" stroke-miterlimit="10" stroke-dasharray="" stroke-dashoffset="0" style="mix-blend-mode: normal"><path d="M300,180c0,-11.04569 8.9543,-20 20,-20c11.0457,0 20,8.95431 20,20c0,11.04569 -8.9543,20 -20,20c-11.0457,0 -20,-8.95431 -20,-20z" fill="#808080" stroke="#ffffff" stroke-width="4"/><path d="M295,205v-50h50v50z" fill="none" stroke="#000000" stroke-width="0"/><path d="M300,180c0,-11.04569 8.9543,-20 20,-20c11.0457,0 20,8.95431 20,20c0,11.04569 -8.9543,20 -20,20c-11.0457,0 -20,-8.95431 -20,-20z" fill="#808080" stroke="#000000" stroke-width="0"/><path d="M334.94355,173.30096c0.33541,0.67082 -0.33542,1.00623 -0.33542,1.00623l-0.33481,0.16662c-1.17557,0.6531 -2.2985,1.26781 -3.35026,2.11185c0,0 -0.58565,0.46852 -1.05417,-0.11713c-0.46852,-0.58565 0.11713,-1.05417 0.11713,-1.05417c1.12091,-0.89417 2.30933,-1.55761 3.55884,-2.25179l0.39245,-0.19702c0,0 0.67082,-0.33541 1.00624,0.33541z" fill="#ffffff" stroke="none" stroke-width="0.5"/><path d="M336.90943,181.1819c-0.1819,0.72761 -0.90951,0.5457 -0.90951,0.5457l-0.18174,-0.06852c-1.63637,0 -3.27272,0 -4.90909,0c0,0 -0.75,0 -0.75,-0.75c0,-0.75 0.75,-0.75 0.75,-0.75c1.63637,0 3.27272,0 4.90909,0l0.54554,0.1133c0,0 0.7276,0.1819 0.5457,0.90951z" fill="#ffffff" stroke="none" stroke-width="0.5"/><path d="M334.46271,187.69254c-0.14709,0.73543 -0.88253,0.58835 -0.88253,0.58835l-0.69333,-0.18322c-1.24377,-0.74717 -2.51711,-1.4115 -3.74406,-2.19219c0,0 -0.63274,-0.40266 -0.23009,-1.0354c0.40265,-0.63274 1.0354,-0.23009 1.0354,-0.23009c1.21588,0.77383 2.47675,1.43206 3.71049,2.17145l0.21576,-0.00141c0,0 0.73543,0.14709 0.58835,0.88252z" fill="#ffffff" stroke="none" stroke-width="0.5"/><path d="M305.68905,172.96555l0.39245,0.19702c1.2495,0.69417 2.43793,1.35761 3.55883,2.25179c0,0 0.58565,0.46852 0.11713,1.05417c-0.46852,0.58565 -1.05417,0.11713 -1.05417,0.11713c-1.05176,-0.84403 -2.17469,-1.45875 -3.35026,-2.11185l-0.33481,-0.16662c0,0 -0.67082,-0.33541 -0.33541,-1.00623c0.33541,-0.67082 1.00624,-0.33541 1.00624,-0.33541z" data-paper-data="{&quot;index&quot;:null}" fill="#ffffff" stroke="none" stroke-width="0.5"/><path d="M303.26264,180.2724l0.54554,-0.1133c1.63637,0 3.27272,0 4.90909,0c0,0 0.75,0 0.75,0.75c0,0.75 -0.75,0.75 -0.75,0.75c-1.63637,0 -3.27272,0 -4.90909,0l-0.18174,0.06852c0,0 -0.72761,0.1819 -0.90951,-0.5457c-0.1819,-0.72761 0.5457,-0.90951 0.5457,-0.90951z" data-paper-data="{&quot;index&quot;:null}" fill="#ffffff" stroke="none" stroke-width="0.5"/><path d="M305.752,186.81002l0.21576,0.00141c1.23374,-0.73939 2.49461,-1.39761 3.71049,-2.17145c0,0 0.63274,-0.40266 1.0354,0.23009c0.40265,0.63274 -0.23009,1.0354 -0.23009,1.0354c-1.22694,0.78069 -2.50029,1.44502 -3.74406,2.19219l-0.69333,0.18322c0,0 -0.73544,0.14709 -0.88252,-0.58835c-0.14709,-0.73543 0.58835,-0.88252 0.58835,-0.88252z" data-paper-data="{&quot;index&quot;:null}" fill="#ffffff" stroke="none" stroke-width="0.5"/><g stroke="none" stroke-width="0.5"><path d="M322.30948,185.42869l0.0462,-0.09592c0.09242,-0.83168 0.88769,-3.52165 -0.10976,-4.03031c-0.07546,-0.03849 -0.14134,-0.06109 -0.20003,-0.07152c0.14434,0.41807 0.17808,0.85336 -0.08493,1.08626c-0.38678,0.3425 -1.0286,0.0979 -1.5429,0.14686c-0.05738,-0.46228 0.01809,-0.92543 0.18622,-1.32725c-0.0919,-0.09941 -0.20916,-0.18684 -0.40657,-0.22222c-0.1541,-0.02762 -0.27948,-0.01701 -0.388,0.01799c0.5194,1.4733 -2.01156,2.58974 -1.9516,0.50308c-0.58115,0.79424 -0.02506,2.91507 0.20562,3.42272c0,0 0.04375,0.09842 0.05297,0.23082c1.36935,0.29574 2.8023,0.50399 4.18367,0.37255c0.00511,-0.02107 0.0091,-0.03305 0.0091,-0.03305zM316.98134,180.72244c0.45168,-0.5362 1.18726,-0.87187 1.82277,-0.73469c0.80957,-0.37098 1.94226,-0.27543 2.56061,0.17742c0.62544,-0.42073 1.45433,-0.35045 2.173,0.69657c0.77601,1.13055 0.2443,3.04263 0.05675,4.36466c0.11795,-0.03282 0.23522,-0.06891 0.35172,-0.10843l0.10363,-0.03455c-0.00353,-0.03224 -0.00353,-0.0519 -0.00353,-0.0519l0.00093,-0.6966c0.27392,-2.36146 2.07886,-4.14092 2.59331,-6.43983c0.39649,-1.77177 0.07104,-4.00746 -0.36,-5.73267c-1.92942,-5.79601 -9.15999,-4.5533 -12.00695,-0.08006c-1.33819,2.39736 -1.49313,5.27541 -0.20515,7.73095c0.74874,1.42748 1.80864,2.58723 2.42312,4.04399c-0.21645,-1.11162 -0.17889,-2.34106 0.48978,-3.13486zM324.88636,186.64284c0.0539,0.32262 -0.18579,1.02422 -0.41143,1.15205c0.25843,0.20121 0.66266,0.59817 0.70785,0.84727c0.16517,0.91041 -0.15843,1.12426 -0.61231,1.77847c-0.4524,-0.01503 0.92318,0.86226 -0.18227,1.94764c-1.12869,1.1082 -2.58667,0.7858 -4.00682,0.78504c-1.28548,-0.00068 -2.2894,0.13051 -3.41406,-0.56108c-0.43685,-0.26863 -1.10349,-1.55779 -0.82019,-1.99037c-0.53411,-0.28146 -0.77555,-1.15931 -0.7036,-1.71314c0.07195,-0.55383 0.07334,-1.29914 0.49461,-1.48434c-0.25503,-0.97621 -0.09953,-1.39473 -0.36954,-2.53224c-0.48969,-1.69092 -1.76596,-2.94483 -2.5763,-4.49372c-1.48764,-2.84347 -1.29895,-6.14219 0.23685,-8.91775c2.05746,-3.23352 7.87336,-6.23116 11.54268,-3.72973c1.37678,0.93857 2.16454,2.55977 2.67576,4.09167c0.4826,1.92933 0.81498,4.36593 0.37667,6.34869c-0.48685,2.2024 -2.33029,3.99695 -2.56337,6.23086l0.00093,0.62939c0,0 0,0.18025 -0.09816,0.34442c0.0145,0.04738 0.02376,0.0921 0.02855,0.13427c-0.18428,0.30824 -0.4392,0.33441 -0.30583,1.13261zM317.01333,187.14641l0.37181,0.13943c0.23734,0.08273 0.40764,0.30849 0.40764,0.57404c0,0.33566 -0.2721,0.60775 -0.60775,0.60775h-0.30977c-0.62834,0.42099 -0.54341,0.98712 -0.1308,1.30688l0.69605,0.13921c0.28406,0.05102 0.4996,0.29941 0.4996,0.59815c0,0.2068 -0.10329,0.38949 -0.2611,0.49926l-0.40803,0.29145c0.00653,0.02948 0.01832,0.05888 0.03616,0.08816c0.26885,0.44134 0.69558,0.24599 1.13709,0.33916c1.779,0.37543 2.99632,0.45825 4.75648,-0.10174c1.21618,-0.38692 -0.25721,-0.4353 -0.18135,-1.31907c0.02904,-0.33832 0.46107,-0.49864 0.6916,-0.74795c0.85703,-1.12137 -0.4909,-0.74322 -0.61073,-1.60082c-0.1233,-0.88243 1.33756,-1.00394 0.03202,-1.55119l0.12446,0.06416c0,0 -0.06049,0.10001 -0.2404,-0.07054c-2.47833,0.29723 -3.18914,0.19447 -5.70632,-0.27954c-0.37622,0.10151 -0.37903,0.5756 -0.29667,1.0232z" fill="#48390a"/><path d="M317.27499,186.08752c2.51717,0.47401 3.29921,0.57799 5.77754,0.28076c0.17991,0.17055 0.16615,0.13748 0.16615,0.13748l-0.04948,-0.13031c1.30555,0.54725 -0.14561,0.68445 -0.02231,1.56687c0.11983,0.8576 1.47064,0.5043 0.61361,1.62567c-0.23053,0.24931 -0.6663,0.42284 -0.69534,0.76117c-0.07587,0.88377 1.38978,0.94451 0.17361,1.33143c-1.76016,0.55999 -3.0432,0.48639 -4.8222,0.11096c-0.4415,-0.09317 -0.87965,0.09172 -1.1485,-0.34961c-0.01784,-0.02928 -0.03039,-0.05965 -0.03691,-0.08913l0.40817,-0.29128c0.1578,-0.10978 0.25856,-0.2961 0.25856,-0.5029c0,-0.29874 -0.22116,-0.5594 -0.50522,-0.61042l-0.69721,-0.14381c-0.41261,-0.31976 -0.49771,-0.90477 0.13063,-1.32576l0.30994,-0.00089c0.33565,0 0.61212,-0.28472 0.61212,-0.62037c0,-0.26555 -0.16787,-0.4956 -0.40521,-0.57833l-0.37239,-0.1385c-0.08236,-0.4476 -0.07176,-0.93153 0.30446,-1.03304z" data-paper-data="{&quot;noHover&quot;:false,&quot;origItem&quot;:[&quot;Path&quot;,{&quot;applyMatrix&quot;:true,&quot;segments&quot;:[[[634.02665,374.29282],[-0.16472,-0.89519],[0,0]],[[634.77028,374.57168],[0,0],[0.47468,0.16545]],[[635.58556,375.71976],[0,-0.53109],[0,0.67131]],[[634.37006,376.93526],[0.67131,0],[0,0]],[[633.75052,376.93526],[0,0],[-1.25668,0.84197]],[[633.48892,379.54903],[-0.82522,-0.63953],[0,0]],[[634.88102,379.82745],[0,0],[0.56811,0.10204]],[[635.88023,381.02376],[0,-0.59748],[0,0.4136]],[[635.35804,382.02228],[0.31561,-0.21955],[0,0]],[[634.54197,382.60519],[0,0],[0.01305,0.05896]],[[634.61428,382.7815],[-0.03568,-0.05856],[0.53771,0.88267]],[[636.88845,383.45981],[-0.883,-0.18634],[3.55801,0.75085]],[[646.40142,383.25632],[-3.52033,1.11999],[2.43235,-0.77385]],[[646.03873,380.61818],[-0.15173,1.76754],[0.05808,-0.67665]],[[647.42194,379.12228],[-0.46107,0.49863],[1.71407,-2.24274]],[[646.20048,375.92063],[0.23966,1.7152],[-0.2466,-1.76485]],[[646.26451,372.81826],[2.6111,1.0945],[0,0]],[646.51343,372.94658],[[646.03263,372.80549],[0.35981,0.3411],[-4.95666,0.59446]],[[634.62,372.24642],[5.03434,0.94801],[-0.75244,0.20301]]],&quot;closed&quot;:true}]}" fill="#bfbfbf"/><path d="M322.33465,185.49816c-1.38137,0.13144 -2.88542,-0.07939 -4.25476,-0.37513c-0.00923,-0.1324 -0.05545,-0.23374 -0.05545,-0.23374c-0.23068,-0.50765 -0.78723,-2.6897 -0.20608,-3.48394c-0.05996,2.08666 2.50286,0.95116 1.98346,-0.52214c0.10852,-0.03501 0.24235,-0.04624 0.39645,-0.01862c0.19741,0.03538 0.32435,0.12387 0.41625,0.22328c-0.16814,0.40181 -0.23802,0.86648 -0.18064,1.32876c0.5143,-0.04896 1.09547,0.26521 1.48225,-0.07729c0.26301,-0.2329 0.23965,-0.6541 0.0953,-1.07217c0.05869,0.01044 0.19592,-0.03695 0.27138,0.00153c0.99745,0.50867 0.20106,3.26733 0.10864,4.09901l-0.04735,0.09707c0,0 -0.00433,0.0123 -0.00944,0.03338z" data-paper-data="{&quot;noHover&quot;:false,&quot;origItem&quot;:[&quot;Path&quot;,{&quot;applyMatrix&quot;:true,&quot;segments&quot;:[[644.61896,370.85737],[[644.71135,370.66552],[0,0],[0.18484,-1.66337]],[[644.49183,362.6049],[1.9949,1.01733],[-0.15092,-0.07697]],[[644.09177,362.46185],[0.11738,0.02087],[0.28869,0.83615]],[[643.9219,364.63438],[0.52602,-0.46581],[-0.77355,0.685]],[[640.8361,364.9281],[1.0286,-0.09791],[-0.11476,-0.92455]],[[641.20855,362.2736],[-0.33627,0.80363],[-0.1838,-0.19882]],[[640.39542,361.82915],[0.39481,0.07077],[-0.3082,-0.05524]],[[639.61942,361.86514],[0.21704,-0.07001],[1.0388,2.9466]],[[635.71622,362.87131],[-0.11993,4.17332],[-1.1623,1.58849]],[[636.12747,369.71675],[-0.46137,-1.0153],[0,0]],[[636.23341,370.17839],[-0.01845,-0.26479],[2.73869,0.59147]],[[644.60076,370.92348],[-2.76275,0.26288],[0.01022,-0.04215]]],&quot;closed&quot;:true}]}" fill="#fff495"/><path d="M316.46945,183.90215c-0.61449,-1.45675 -1.69667,-2.63836 -2.44541,-4.06584c-1.28798,-2.45554 -1.12742,-5.38813 0.21077,-7.78549c2.84696,-4.47323 10.15672,-5.71385 12.08613,0.08216c0.43104,1.72521 0.76535,3.99891 0.36886,5.77068c-0.51445,2.29891 -2.34514,4.11395 -2.61906,6.4754l-0.00251,0.69742c0,0 -0.0001,0.0197 0.00343,0.05194l-0.10416,0.0348c-0.11651,0.03952 -0.27458,-0.01565 -0.39254,0.01717c0.18755,-1.32203 0.70619,-3.22601 -0.06982,-4.35656c-0.71868,-1.04702 -1.49647,-1.03292 -2.12192,-0.61219c-0.61835,-0.45285 -1.78685,-0.54794 -2.59642,-0.17696c-0.63551,-0.13718 -1.32358,0.11174 -1.77525,0.64795c-0.66866,0.7938 -0.75856,2.10792 -0.54211,3.21953z" data-paper-data="{&quot;noHover&quot;:false,&quot;origItem&quot;:[&quot;Path&quot;,{&quot;applyMatrix&quot;:true,&quot;segments&quot;:[[[633.96268,361.44488],[-1.33733,1.58761],[0.90335,-1.07241]],[[637.60821,359.9755],[-1.27101,-0.27437],[1.61915,-0.74196]],[[642.72943,360.33035],[-1.2367,-0.90571],[1.25088,-0.84145]],[[647.07544,361.72349],[-1.43735,-2.09404],[1.55203,2.26111]],[[647.18894,370.45282],[0.3751,-2.64406],[0.23591,-0.06564]],[[647.89239,370.23595],[-0.23301,0.07905],[0,0]],[[648.09966,370.16686],[0,0],[-0.00707,-0.06448]],[648.0926,370.06307],[[648.09445,368.66986],[0,0],[0.54784,-4.72292]],[[653.28107,355.7902],[-1.0289,4.59782],[0.79298,-3.54355]],[[652.56108,344.32486],[0.86208,3.45043],[-3.85883,-11.59201]],[[628.54718,344.16473],[5.69392,-8.94647],[-2.67638,4.79471]],[[628.13688,359.62663],[-2.57595,-4.91108],[1.49748,2.85497]],[[632.98313,367.7146],[-1.22897,-2.91351],[-0.43291,-2.22323]]],&quot;closed&quot;:true}]}" fill="#fff495"/></g></g></g></svg>