<svg version="1.1" xmlns="http://www.w3.org/2000/svg" xmlns:xlink="http://www.w3.org/1999/xlink" width="64" height="64" viewBox="0,0,64,64"><defs><radialGradient cx="320" cy="240" r="14.05555" gradientUnits="userSpaceOnUse" id="color-1"><stop offset="0" stop-color="#ff0000" stop-opacity="0.50196"/><stop offset="1" stop-color="#ff0000" stop-opacity="0"/></radialGradient></defs><g transform="translate(-288,-208)"><g data-paper-data="{&quot;isPaintingLayer&quot;:true}" fill-rule="nonzero" stroke="#000000" stroke-width="0" stroke-linecap="butt" stroke-linejoin="miter" stroke-miterlimit="10" stroke-dasharray="" stroke-dashoffset="0" style="mix-blend-mode: normal"><path d="M305.94445,240c0,-7.76267 6.29288,-14.05555 14.05555,-14.05555c7.76267,0 14.05555,6.29288 14.05555,14.05555c0,7.76267 -6.29288,14.05555 -14.05555,14.05555c-7.76267,0 -14.05555,-6.29288 -14.05555,-14.05555z" fill="url(#color-1)"/><path d="M288,272v-64h64v64z" fill="none"/><path d="M312.03846,240c0,0 4.78828,-0.60366 6.11135,-1.92674c1.33073,-1.33073 1.85018,-6.0348 1.85018,-6.0348c0,0 0.58323,4.73723 1.91143,6.06542c1.32564,1.32564 6.05011,1.89612 6.05011,1.89612c0,0 -4.75538,0.57077 -6.09604,1.91143c-1.31259,1.31259 -1.8655,6.05011 -1.8655,6.05011c0,0 -0.55516,-4.73978 -1.88081,-6.06542c-1.3282,-1.3282 -6.08073,-1.89612 -6.08073,-1.89612z" fill="#ff8080"/></g></g></svg>