<svg version="1.1" xmlns="http://www.w3.org/2000/svg" xmlns:xlink="http://www.w3.org/1999/xlink" width="100" height="100" viewBox="0,0,100,100"><g transform="translate(-270,-130)"><g data-paper-data="{&quot;isPaintingLayer&quot;:true}" fill-rule="nonzero" stroke-linecap="butt" stroke-linejoin="miter" stroke-miterlimit="10" stroke-dasharray="" stroke-dashoffset="0" style="mix-blend-mode: normal"><path d="M284,220c-2.20914,0 -4,-1.79086 -4,-4v-72c0,-2.20914 1.79086,-4 4,-4h72c2.20914,0 4,1.79086 4,4v72c0,2.20914 -1.79086,4 -4,4z" fill="#1a1a1a" stroke="#333333" stroke-width="2"/><path d="M270,230v-100h100v100z" fill="none" stroke="none" stroke-width="0"/><path d="M312,178v-8c0,-4.41828 3.58172,-8 8,-8c4.41828,0 8,3.58172 8,8v8" fill="none" stroke="#cccccc" stroke-width="5"/><path d="M305,198v-24h30v24zM317.67451,186.25493l-0.67451,6.74507h6l-0.67451,-6.74507c1.01382,-0.72562 1.67451,-1.91312 1.67451,-3.25493c0,-2.20914 -1.79086,-4 -4,-4c-2.20914,0 -4,1.79086 -4,4c0,1.34181 0.66069,2.52931 1.67451,3.25493z" fill="#cccccc" stroke="none" stroke-width="0"/></g></g></svg>