<svg version="1.1" xmlns="http://www.w3.org/2000/svg" xmlns:xlink="http://www.w3.org/1999/xlink" width="100" height="100" viewBox="0,0,100,100"><defs><linearGradient x1="320" y1="180" x2="320" y2="217" gradientUnits="userSpaceOnUse" id="color-1"><stop offset="0" stop-color="#8c8c8c" stop-opacity="0"/><stop offset="1" stop-color="#8c8c8c"/></linearGradient></defs><g transform="translate(-270,-130)"><g data-paper-data="{&quot;isPaintingLayer&quot;:true}" fill-rule="nonzero" stroke-linecap="butt" stroke-linejoin="miter" stroke-miterlimit="10" stroke-dasharray="" stroke-dashoffset="0" style="mix-blend-mode: normal"><path d="M270,230v-100h100v100z" fill="none" stroke="none" stroke-width="0"/><path d="M284,220c-2.20914,0 -4,-1.79086 -4,-4v-72c0,-2.20914 1.79086,-4 4,-4h72c2.20914,0 4,1.79086 4,4v72c0,2.20914 -1.79086,4 -4,4z" fill="#ffffff" stroke="#808080" stroke-width="2"/><path d="M287,217c-2.20914,0 -4,-1.79086 -4,-4v-29c0,-2.20914 1.79086,-4 4,-4h66c2.20914,0 4,1.79086 4,4v29c0,2.20914 -1.79086,4 -4,4z" fill="url(#color-1)" stroke="none" stroke-width="0"/><text transform="translate(286.77143,215.27318) scale(0.34197,0.34197)" font-size="40" xml:space="preserve" fill="#404040" fill-rule="nonzero" stroke="#404040" stroke-width="4" stroke-linecap="butt" stroke-linejoin="miter" stroke-miterlimit="10" stroke-dasharray="" stroke-dashoffset="0" font-family="&quot;RocknRollOne-Regular&quot;, Sans Serif" font-weight="normal" text-anchor="start" style="mix-blend-mode: normal"><tspan x="0" dy="0">3</tspan></text><text transform="translate(285.77143,214.27318) scale(0.34197,0.34197)" font-size="40" xml:space="preserve" fill="#ffffff" fill-rule="nonzero" stroke="#000000" stroke-width="0" stroke-linecap="butt" stroke-linejoin="miter" stroke-miterlimit="10" stroke-dasharray="" stroke-dashoffset="0" font-family="&quot;RocknRollOne-Regular&quot;, Sans Serif" font-weight="normal" text-anchor="start" style="mix-blend-mode: normal"><tspan x="0" dy="0">3</tspan></text></g></g></svg>