<svg version="1.1" xmlns="http://www.w3.org/2000/svg" xmlns:xlink="http://www.w3.org/1999/xlink" width="32" height="32" viewBox="0,0,32,32"><g transform="translate(-304,-44)"><g data-paper-data="{&quot;isPaintingLayer&quot;:true}" fill-rule="nonzero" stroke-linecap="butt" stroke-linejoin="miter" stroke-miterlimit="10" stroke-dasharray="" stroke-dashoffset="0" style="mix-blend-mode: normal"><path d="M304,76v-32h32v32z" data-paper-data="{&quot;index&quot;:null}" fill-opacity="0.50196" fill="#000000" stroke="none" stroke-width="0"/><g><path d="M309.66666,61.58333v-1c0,-1.65686 1.34314,-3 3,-3c1.65686,0 3,1.34314 3,3v5" fill="none" stroke="#bfbfbf" stroke-width="2"/><path d="M307.04166,73.08333v-9h11.25v9zM311.7946,68.67893l-0.25294,2.5294h2.25l-0.25294,-2.5294c0.38018,-0.27211 0.62794,-0.71742 0.62794,-1.2206c0,-0.82843 -0.67158,-1.5 -1.5,-1.5c-0.82843,0 -1.5,0.67157 -1.5,1.5c0,0.50318 0.24776,0.94849 0.62794,1.2206z" fill="#bfbfbf" stroke="none" stroke-width="0"/></g><path d="M319.39358,59.81878c-0.37991,0 -0.6879,-0.30798 -0.6879,-0.6879v-10.6242c0,-0.37991 0.30798,-0.6879 0.6879,-0.6879h10.6242c0.37991,0 0.6879,0.30799 0.6879,0.6879v10.6242c0,0.11888 -0.03016,0.23071 -0.08323,0.32827l-5.96455,-6.18026l-0.0205,6.53989z" fill="#bfbfbf" stroke="none" stroke-width="0"/><path d="M330.17758,69.64649l-1.78538,-3.84543l-2.75404,2.81404l0.04058,-12.94819l8.75516,9.07179l-3.75047,0.0077l1.62646,3.62292c0,0 0.24873,0.84902 -0.53003,1.33453c-0.92994,0.57978 -1.60227,-0.05735 -1.60227,-0.05735z" fill="#bfbfbf" stroke="#000000" stroke-width="0"/></g></g></svg>