<svg version="1.1" xmlns="http://www.w3.org/2000/svg" xmlns:xlink="http://www.w3.org/1999/xlink" width="100" height="100" viewBox="0,0,100,100"><defs><linearGradient x1="320" y1="180" x2="320" y2="217" gradientUnits="userSpaceOnUse" id="color-1"><stop offset="0" stop-color="#666666" stop-opacity="0"/><stop offset="1" stop-color="#666666"/></linearGradient></defs><g transform="translate(-270,-130)"><g data-paper-data="{&quot;isPaintingLayer&quot;:true}" fill-rule="nonzero" stroke-linecap="butt" stroke-linejoin="miter" stroke-miterlimit="10" stroke-dasharray="" stroke-dashoffset="0" style="mix-blend-mode: normal"><path d="M270,230v-100h100v100z" fill="none" stroke="none" stroke-width="0"/><path d="M284,220c-2.20914,0 -4,-1.79086 -4,-4v-72c0,-2.20914 1.79086,-4 4,-4h72c2.20914,0 4,1.79086 4,4v72c0,2.20914 -1.79086,4 -4,4z" fill="#ffffff" stroke="#333333" stroke-width="2"/><path d="M287,217c-2.20914,0 -4,-1.79086 -4,-4v-29c0,-2.20914 1.79086,-4 4,-4h66c2.20914,0 4,1.79086 4,4v29c0,2.20914 -1.79086,4 -4,4z" fill="url(#color-1)" stroke="none" stroke-width="0"/></g></g></svg>